{
    "asset" : {
        "generator" : "Khronos glTF Blender I/O v3.4.50",
        "version" : "2.0"
    },
    "scene" : 0,
    "scenes" : [
        {
            "name" : "Scene",
            "nodes" : [
                2
            ]
        }
    ],
    "nodes" : [
        {
            "mesh" : 0,
            "name" : "Object_2",
            "scale" : [
                0.2130657285451889,
                0.2130657434463501,
                0.2130657434463501
            ],
            "translation" : [
                0,
                0,
                -0.21184588968753815
            ]
        },
        {
            "children" : [
                0
            ],
            "name" : "fa_flintlockPistol.obj.cleaner.materialmerger.gles"
        },
        {
            "children" : [
                1
            ],
            "name" : "Sketchfab_model",
            "rotation" : [
                -0.70710688829422,
                0,
                0,
                0.7071066498756409
            ],
            "scale" : [
                72.46794128417969,
                72.46794891357422,
                72.46794891357422
            ],
            "translation" : [
                -0.001981301698833704,
                23.33622932434082,
                0.003338523441925645
            ]
        }
    ],
    "materials" : [
        {
            "doubleSided" : true,
            "name" : "fa_flintlockPistol",
            "pbrMetallicRoughness" : {
                "baseColorFactor" : [
                    0.8709999918937683,
                    0.8709999918937683,
                    0.8709999918937683,
                    1
                ],
                "baseColorTexture" : {
                    "index" : 0
                },
                "metallicFactor" : 0,
                "roughnessFactor" : 0.5
            }
        }
    ],
    "meshes" : [
        {
            "name" : "Object_0.001",
            "primitives" : [
                {
                    "attributes" : {
                        "POSITION" : 0,
                        "TEXCOORD_0" : 1,
                        "NORMAL" : 2
                    },
                    "indices" : 3,
                    "material" : 0
                }
            ]
        }
    ],
    "textures" : [
        {
            "sampler" : 0,
            "source" : 0
        }
    ],
    "images" : [
        {
            "mimeType" : "image/jpeg",
            "name" : "Image_0",
            "uri" : "Image_0.jpg"
        }
    ],
    "accessors" : [
        {
            "bufferView" : 0,
            "componentType" : 5126,
            "count" : 3199,
            "max" : [
                0.14708900451660156,
                0.030301999300718307,
                0.06908100098371506
            ],
            "min" : [
                -0.21448799967765808,
                -0.02664799988269806,
                -0.07312600314617157
            ],
            "type" : "VEC3"
        },
        {
            "bufferView" : 1,
            "componentType" : 5126,
            "count" : 3199,
            "type" : "VEC2"
        },
        {
            "bufferView" : 2,
            "componentType" : 5126,
            "count" : 3199,
            "type" : "VEC3"
        },
        {
            "bufferView" : 3,
            "componentType" : 5123,
            "count" : 14922,
            "type" : "SCALAR"
        }
    ],
    "bufferViews" : [
        {
            "buffer" : 0,
            "byteLength" : 38388,
            "byteOffset" : 0,
            "target" : 34962
        },
        {
            "buffer" : 0,
            "byteLength" : 25592,
            "byteOffset" : 38388,
            "target" : 34962
        },
        {
            "buffer" : 0,
            "byteLength" : 38388,
            "byteOffset" : 63980,
            "target" : 34962
        },
        {
            "buffer" : 0,
            "byteLength" : 29844,
            "byteOffset" : 102368,
            "target" : 34963
        }
    ],
    "samplers" : [
        {
            "magFilter" : 9729,
            "minFilter" : 9987
        }
    ],
    "buffers" : [
        {
            "byteLength" : 132212,
            "uri" : "flintlock.bin"
        }
    ]
}
